<svg width="64" height="64" viewBox="0 0 64 64" xmlns="http://www.w3.org/2000/svg">
  <defs>
    <linearGradient id="hospitalityGradient" x1="0%" y1="0%" x2="120%" y2="100%">
      <stop offset="0%" stop-color="#f97316" />
      <stop offset="50%" stop-color="#fb7185" />
      <stop offset="100%" stop-color="#f472b6" />
    </linearGradient>
  </defs>
  <rect x="4" y="4" width="56" height="56" rx="18" fill="url(#hospitalityGradient)" opacity="0.9" />
  <path d="M32 18c6.075 0 11 4.925 11 11 0 4.182-2.307 7.822-5.704 9.765l-.296.167V46a3 3 0 0 1-3 3h-4a3 3 0 0 1-3-3v-7.068l-.296-.167C23.307 36.822 21 33.182 21 29c0-6.075 4.925-11 11-11zm14 24h1a4 4 0 0 1 4 4v3h-6v-7zM17 42h2v7h-6v-3a4 4 0 0 1 4-4z" fill="#f8fafc" />
</svg>
