<svg width="64" height="64" viewBox="0 0 64 64" xmlns="http://www.w3.org/2000/svg">
  <defs>
    <linearGradient id="healthGradient" x1="0%" y1="0%" x2="120%" y2="100%">
      <stop offset="0%" stop-color="#34d399" />
      <stop offset="50%" stop-color="#22d3ee" />
      <stop offset="100%" stop-color="#38bdf8" />
    </linearGradient>
  </defs>
  <rect x="4" y="4" width="56" height="56" rx="18" fill="url(#healthGradient)" opacity="0.9" />
  <path d="M30 16h4c1.1 0 2 .9 2 2v10h10c1.1 0 2 .9 2 2v4c0 1.1-.9 2-2 2H36v10c0 1.1-.9 2-2 2h-4c-1.1 0-2-.9-2-2V36H18c-1.1 0-2-.9-2-2v-4c0-1.1.9-2 2-2h10V18c0-1.1.9-2 2-2z" fill="#f8fafc" />
</svg>
