<svg width="64" height="64" viewBox="0 0 64 64" xmlns="http://www.w3.org/2000/svg">
  <defs>
    <linearGradient id="innovationGradient" x1="0%" y1="0%" x2="120%" y2="100%">
      <stop offset="0%" stop-color="#38bdf8" />
      <stop offset="50%" stop-color="#a855f7" />
      <stop offset="100%" stop-color="#f472b6" />
    </linearGradient>
  </defs>
  <rect x="4" y="4" width="56" height="56" rx="18" fill="url(#innovationGradient)" opacity="0.9" />
  <path d="M32 18c7.18 0 13 5.82 13 13 0 4.34-2.11 8.18-5.36 10.56l-.64.49V46a3 3 0 0 1-3 3h-8a3 3 0 0 1-3-3v-4.95l-.64-.49A12.952 12.952 0 0 1 19 31c0-7.18 5.82-13 13-13zm-3 33h6v3a3 3 0 0 1-3 3 3 3 0 0 1-3-3v-3z" fill="#f8fafc" />
</svg>
