<svg width="64" height="64" viewBox="0 0 64 64" xmlns="http://www.w3.org/2000/svg">
  <defs>
    <linearGradient id="mobilityGradient" x1="0%" y1="0%" x2="120%" y2="100%">
      <stop offset="0%" stop-color="#6366f1" />
      <stop offset="50%" stop-color="#8b5cf6" />
      <stop offset="100%" stop-color="#f472b6" />
    </linearGradient>
  </defs>
  <rect x="4" y="4" width="56" height="56" rx="18" fill="url(#mobilityGradient)" opacity="0.9" />
  <path d="M46 24h-8.586l-2-2H28.59l-2 2H18c-2.21 0-4 1.79-4 4v14c0 2.21 1.79 4 4 4h3c0-3.314 2.686-6 6-6s6 2.686 6 6h2c0-3.314 2.686-6 6-6s6 2.686 6 6h1c2.21 0 4-1.79 4-4V28c0-2.21-1.79-4-4-4zm-23 9H18v-5h5v5zm18 0h-6v-5h6v5z" fill="#f8fafc" />
</svg>
